<svg width="221" height="50" viewBox="0 0 221 50" fill="none" xmlns="http://www.w3.org/2000/svg">
<path opacity="0.7" fill-rule="evenodd" clip-rule="evenodd" d="M12.6062 25.0001L20.1992 11.8617L27.6807 25.0001L20.2085 38.0299L12.6062 25.0001Z" fill="#3558C7"/>
<path fill-rule="evenodd" clip-rule="evenodd" d="M35.2926 11.893L42.9404 25H27.6788L20.1416 11.9239L35.2926 11.893Z" fill="#3558C7"/>
<path opacity="0.7" fill-rule="evenodd" clip-rule="evenodd" d="M35.3927 37.9983L20.1516 38.0296L27.6796 24.9998L42.9412 24.9375L35.3927 37.9983Z" fill="#3558C7"/>
<path opacity="0.8" fill-rule="evenodd" clip-rule="evenodd" d="M39.7802 0H15.7764L20.2935 7.16609H35.263L39.7802 0Z" fill="#3558C7"/>
<path opacity="0.8" fill-rule="evenodd" clip-rule="evenodd" d="M39.7802 49.9999H15.7764L20.2935 42.8338H35.263L39.7802 49.9999Z" fill="#3558C7"/>
<path opacity="0.8" fill-rule="evenodd" clip-rule="evenodd" d="M12.002 2.16568L0 22.8332L8.50069 22.527L15.9855 9.63796L12.002 2.16568Z" fill="#3558C7"/>
<path opacity="0.8" fill-rule="evenodd" clip-rule="evenodd" d="M55.5553 27.1665L43.5534 47.834L39.5698 40.3617L47.0547 27.4727L55.5553 27.1665Z" fill="#3558C7"/>
<path opacity="0.8" fill-rule="evenodd" clip-rule="evenodd" d="M0 27.1665L12.002 47.834L15.9855 40.3617L8.50069 27.4727L0 27.1665Z" fill="#3558C7"/>
<path opacity="0.8" fill-rule="evenodd" clip-rule="evenodd" d="M43.5534 2.16568L55.5553 22.8332L47.0547 22.527L39.5698 9.63796L43.5534 2.16568Z" fill="#3558C7"/>
<path d="M90.1055 11.256V35H85.3375V33.016C84.1002 34.5093 82.3082 35.256 79.9615 35.256C78.3402 35.256 76.8682 34.8933 75.5455 34.168C74.2442 33.4427 73.2202 32.408 72.4735 31.064C71.7268 29.72 71.3535 28.1627 71.3535 26.392C71.3535 24.6213 71.7268 23.064 72.4735 21.72C73.2202 20.376 74.2442 19.3413 75.5455 18.616C76.8682 17.8907 78.3402 17.528 79.9615 17.528C82.1588 17.528 83.8762 18.2213 85.1135 19.608V11.256H90.1055ZM80.8255 31.16C82.0842 31.16 83.1295 30.7333 83.9615 29.88C84.7935 29.0053 85.2095 27.8427 85.2095 26.392C85.2095 24.9413 84.7935 23.7893 83.9615 22.936C83.1295 22.0613 82.0842 21.624 80.8255 21.624C79.5455 21.624 78.4895 22.0613 77.6575 22.936C76.8255 23.7893 76.4095 24.9413 76.4095 26.392C76.4095 27.8427 76.8255 29.0053 77.6575 29.88C78.4895 30.7333 79.5455 31.16 80.8255 31.16Z" fill="#394494"/>
<path d="M104.902 17.528C106.502 17.528 107.952 17.9013 109.254 18.648C110.576 19.3733 111.611 20.408 112.358 21.752C113.104 23.0747 113.478 24.6213 113.478 26.392C113.478 28.1627 113.104 29.72 112.358 31.064C111.611 32.3867 110.576 33.4213 109.254 34.168C107.952 34.8933 106.502 35.256 104.902 35.256C102.534 35.256 100.731 34.5093 99.4938 33.016V35H94.7258V11.256H99.7178V19.608C100.976 18.2213 102.704 17.528 104.902 17.528ZM104.038 31.16C105.318 31.16 106.363 30.7333 107.174 29.88C108.006 29.0053 108.422 27.8427 108.422 26.392C108.422 24.9413 108.006 23.7893 107.174 22.936C106.363 22.0613 105.318 21.624 104.038 21.624C102.758 21.624 101.702 22.0613 100.87 22.936C100.059 23.7893 99.6538 24.9413 99.6538 26.392C99.6538 27.8427 100.059 29.0053 100.87 29.88C101.702 30.7333 102.758 31.16 104.038 31.16Z" fill="#394494"/>
<path d="M149.746 12.6L142.418 35H136.85L131.922 19.832L126.834 35H121.298L113.938 12.6H119.314L124.37 28.344L129.65 12.6H134.45L139.57 28.472L144.786 12.6H149.746Z" fill="#394494"/>
<path d="M157.951 17.528C160.618 17.528 162.666 18.168 164.095 19.448C165.524 20.7067 166.239 22.616 166.239 25.176V35H161.567V32.856C160.628 34.456 158.879 35.256 156.319 35.256C154.996 35.256 153.844 35.032 152.863 34.584C151.903 34.136 151.167 33.5173 150.655 32.728C150.143 31.9387 149.887 31.0427 149.887 30.04C149.887 28.44 150.484 27.1813 151.679 26.264C152.895 25.3467 154.762 24.888 157.279 24.888H161.247C161.247 23.8 160.916 22.968 160.255 22.392C159.594 21.7947 158.602 21.496 157.279 21.496C156.362 21.496 155.455 21.6453 154.559 21.944C153.684 22.2213 152.938 22.6053 152.319 23.096L150.527 19.608C151.466 18.9467 152.586 18.4347 153.887 18.072C155.21 17.7093 156.564 17.528 157.951 17.528ZM157.567 31.896C158.42 31.896 159.178 31.704 159.839 31.32C160.5 30.9147 160.97 30.328 161.247 29.56V27.8H157.823C155.775 27.8 154.751 28.472 154.751 29.816C154.751 30.456 154.996 30.968 155.487 31.352C155.999 31.7147 156.692 31.896 157.567 31.896Z" fill="#394494"/>
<path d="M181.861 34.168C181.37 34.5307 180.762 34.808 180.037 35C179.333 35.1707 178.586 35.256 177.797 35.256C175.749 35.256 174.16 34.7333 173.029 33.688C171.92 32.6427 171.365 31.1067 171.365 29.08V22.008H168.709V18.168H171.365V13.976H176.357V18.168H180.645V22.008H176.357V29.016C176.357 29.7413 176.538 30.3067 176.901 30.712C177.285 31.096 177.818 31.288 178.501 31.288C179.29 31.288 179.962 31.0747 180.517 30.648L181.861 34.168Z" fill="#394494"/>
<path d="M192.452 35.256C190.617 35.256 188.964 34.8827 187.492 34.136C186.041 33.368 184.9 32.312 184.068 30.968C183.257 29.624 182.852 28.0987 182.852 26.392C182.852 24.6853 183.257 23.16 184.068 21.816C184.9 20.472 186.041 19.4267 187.492 18.68C188.964 17.912 190.617 17.528 192.452 17.528C194.265 17.528 195.844 17.912 197.188 18.68C198.553 19.4267 199.545 20.504 200.164 21.912L196.292 23.992C195.396 22.4133 194.105 21.624 192.42 21.624C191.119 21.624 190.041 22.0507 189.188 22.904C188.335 23.7573 187.908 24.92 187.908 26.392C187.908 27.864 188.335 29.0267 189.188 29.88C190.041 30.7333 191.119 31.16 192.42 31.16C194.127 31.16 195.417 30.3707 196.292 28.792L200.164 30.904C199.545 32.2693 198.553 33.336 197.188 34.104C195.844 34.872 194.265 35.256 192.452 35.256Z" fill="#394494"/>
<path d="M213.377 17.528C215.511 17.528 217.228 18.168 218.529 19.448C219.852 20.728 220.513 22.6267 220.513 25.144V35H215.521V25.912C215.521 24.5467 215.223 23.5333 214.625 22.872C214.028 22.1893 213.164 21.848 212.033 21.848C210.775 21.848 209.772 22.2427 209.025 23.032C208.279 23.8 207.905 24.952 207.905 26.488V35H202.913V11.256H207.905V19.576C208.567 18.9147 209.367 18.4133 210.305 18.072C211.244 17.7093 212.268 17.528 213.377 17.528Z" fill="#394494"/>
</svg>
